<svg xmlns="http://www.w3.org/2000/svg" viewBox="0 0 1200 800">
<defs><linearGradient id="b" x1="0" x2="1"><stop stop-color="#06284f"/><stop offset="1" stop-color="#0d5488"/></linearGradient></defs>
<rect width="1200" height="800" fill="#dfe8ef"/><rect y="650" width="1200" height="150" fill="#c4d0d8"/>
<rect x="220" y="150" width="260" height="500" rx="8" fill="url(#b)"/><rect x="480" y="250" width="320" height="400" fill="#fff"/><rect x="800" y="90" width="190" height="560" fill="#198b36"/>
<g fill="#8fc1d8"><path d="M260 200h75v70h-75zM365 200h75v70h-75zM260 305h75v70h-75zM365 305h75v70h-75zM260 410h75v70h-75zM365 410h75v70h-75zM260 515h75v70h-75zM365 515h75v70h-75z"/></g>
<g fill="#b8d3df"><path d="M525 300h90v80h-90zM660 300h90v80h-90zM525 420h90v80h-90zM660 420h90v80h-90z"/></g>
<g fill="#d9f0df"><path d="M835 145h120v62H835zM835 245h120v62H835zM835 345h120v62H835zM835 445h120v62H835zM835 545h120v62H835z"/></g>
</svg>
